<?xml version="1.0" encoding="utf-8"?>
<!-- Generator: Adobe Illustrator 15.1.0, SVG Export Plug-In . SVG Version: 6.00 Build 0)  -->
<!DOCTYPE svg PUBLIC "-//W3C//DTD SVG 1.1//EN" "http://www.w3.org/Graphics/SVG/1.1/DTD/svg11.dtd">
<svg version="1.1" id="Layer_2" xmlns="http://www.w3.org/2000/svg" xmlns:xlink="http://www.w3.org/1999/xlink" x="0px" y="0px"
	 width="1000px" height="1000px" viewBox="0 0 1000 1000" enable-background="new 0 0 1000 1000" xml:space="preserve">
<g>
	<path fill="#333366" d="M1000,500c0,95.222-26.627,184.245-72.824,259.996C863.441,864.49,762.443,943.761,642.646,979.354
		c-45.201,13.429-93.072,20.645-142.641,20.645C223.862,999.999,0.001,776.131,0.001,500c0-276.14,223.861-499.999,500.004-499.999
		c180.912,0,339.367,96.083,427.17,240.011c32.082,52.603,54.711,111.587,65.561,174.607C997.519,442.363,1000,470.881,1000,500z"/>
	<path fill="#FFFFFF" d="M1000,500c0,95.222-26.627,184.245-72.824,259.996h-82.643v-1.287L606.212,500l238.32-258.717v-1.271
		h82.643c32.082,52.603,54.711,111.587,65.561,174.607C997.519,442.363,1000,470.881,1000,500z"/>
	<linearGradient id="SVGID_1_" gradientUnits="userSpaceOnUse" x1="-29.2432" y1="499.9995" x2="987.0353" y2="499.9995">
		<stop  offset="0.0364" style="stop-color:#00AEEF"/>
		<stop  offset="0.0635" style="stop-color:#0CB0E0"/>
		<stop  offset="0.1156" style="stop-color:#2BB5BA"/>
		<stop  offset="0.1864" style="stop-color:#5CBE7C"/>
		<stop  offset="0.25" style="stop-color:#8DC63F"/>
		<stop  offset="0.5" style="stop-color:#ED1C24"/>
		<stop  offset="0.75" style="stop-color:#FFF200"/>
		<stop  offset="1" style="stop-color:#92278F"/>
	</linearGradient>
	<path fill="url(#SVGID_1_)" d="M500.005,33.944c81.375,0,161.473,21.27,231.605,61.523
		c68.084,39.074,125.686,95.172,166.582,162.228c30.588,50.137,51.156,104.871,61.088,162.693
		c4.506,26.061,6.775,52.843,6.775,79.612c0,85.737-23.471,169.523-67.863,242.322c-29.77,48.794-67.799,91.3-113.055,126.359
		c-45.744,35.445-96.947,61.733-152.146,78.14c-42.998,12.762-87.734,19.235-132.986,19.235c-62.938,0-123.965-12.313-181.4-36.608
		c-55.502-23.475-105.337-57.083-148.148-99.899c-42.811-42.815-76.421-92.659-99.896-148.148
		C46.255,623.967,33.944,562.931,33.944,500S46.255,376.041,70.561,318.6c23.476-55.498,57.086-105.341,99.896-148.148
		c42.811-42.825,92.646-76.424,148.148-99.9C376.041,46.257,437.068,33.944,500.005,33.944 M500.005,0.001
		C223.862,0.001,0.001,223.859,0.001,500c0,276.132,223.861,499.999,500.004,499.999c49.568,0,97.439-7.216,142.641-20.645
		c119.797-35.593,220.795-114.864,284.529-219.358C973.373,684.244,1000,595.222,1000,500c0-29.119-2.48-57.637-7.264-85.38
		c-10.85-63.02-33.479-122.005-65.561-174.607C839.373,96.084,680.917,0.001,500.005,0.001L500.005,0.001z"/>
	<rect x="162.287" y="291.507" fill="#EA3626" width="158.544" height="158.552"/>
	<rect x="162.287" y="549.948" fill="#00CC00" width="158.544" height="158.553"/>
	<g>
		<rect x="420.728" y="291.507" fill="#FFFC53" width="158.539" height="158.544"/>
		<rect x="420.728" y="549.94" fill="#0000FF" width="158.539" height="158.552"/>
	</g>
</g>
</svg>
