<?xml version="1.0" encoding="utf-8"?>
<!-- Generator: Adobe Illustrator 15.1.0, SVG Export Plug-In . SVG Version: 6.00 Build 0)  -->
<!DOCTYPE svg PUBLIC "-//W3C//DTD SVG 1.1//EN" "http://www.w3.org/Graphics/SVG/1.1/DTD/svg11.dtd">
<svg version="1.1" id="Layer_2" xmlns="http://www.w3.org/2000/svg" xmlns:xlink="http://www.w3.org/1999/xlink" x="0px" y="0px"
	 width="1376.311px" height="326.934px" viewBox="0 0 1376.311 326.934" enable-background="new 0 0 1376.311 326.934"
	 xml:space="preserve">
<g>
	<g>
		<path fill="#333366" d="M326.934,163.467c0,31.131-8.709,60.237-23.809,85.002c-20.84,34.162-53.855,60.08-93.018,71.713
			c-14.783,4.391-30.432,6.751-46.646,6.751C73.189,326.934,0,253.744,0,163.467S73.189,0,163.461,0
			c59.152,0,110.961,31.416,139.664,78.47c10.486,17.199,17.891,36.478,21.432,57.083
			C326.123,144.624,326.934,153.947,326.934,163.467z"/>
		<path fill="#FFFFFF" d="M326.934,163.467c0,31.131-8.709,60.237-23.809,85.002h-27.02v-0.419l-77.918-84.583l77.918-84.583V78.47
			h27.02c10.486,17.199,17.891,36.478,21.432,57.083C326.123,144.624,326.934,153.947,326.934,163.467z"/>
		<linearGradient id="SVGID_1_" gradientUnits="userSpaceOnUse" x1="-9.5605" y1="163.4668" x2="322.6955" y2="163.4668">
			<stop  offset="0.0364" style="stop-color:#00AEEF"/>
			<stop  offset="0.0635" style="stop-color:#0CB0E0"/>
			<stop  offset="0.1156" style="stop-color:#2BB5BA"/>
			<stop  offset="0.1864" style="stop-color:#5CBE7C"/>
			<stop  offset="0.25" style="stop-color:#8DC63F"/>
			<stop  offset="0.5" style="stop-color:#ED1C24"/>
			<stop  offset="0.75" style="stop-color:#FFF200"/>
			<stop  offset="1" style="stop-color:#92278F"/>
		</linearGradient>
		<path fill="url(#SVGID_1_)" d="M163.461,11.097c26.611,0,52.799,6.958,75.725,20.118c22.26,12.774,41.092,31.114,54.459,53.038
			c10.006,16.388,16.723,34.28,19.973,53.184c1.477,8.524,2.221,17.277,2.221,26.03c0,28.032-7.68,55.421-22.193,79.225
			c-9.727,15.952-22.16,29.85-36.953,41.31c-14.961,11.589-31.695,20.185-49.744,25.543c-14.055,4.172-28.688,6.292-43.486,6.292
			c-20.57,0-40.516-4.027-59.303-11.969c-18.137-7.674-34.436-18.659-48.43-32.658c-13.998-14-24.984-30.297-32.662-48.436
			c-7.943-18.781-11.971-38.731-11.971-59.308c0-20.571,4.027-40.527,11.971-59.308c7.678-18.138,18.664-34.436,32.662-48.43
			c13.994-13.999,30.293-24.989,48.43-32.663C122.945,15.124,142.891,11.097,163.461,11.097 M163.461,0C73.189,0,0,73.19,0,163.467
			s73.189,163.467,163.461,163.467c16.215,0,31.863-2.36,46.646-6.751c39.162-11.633,72.178-37.551,93.018-71.713
			c15.1-24.766,23.809-53.872,23.809-85.002c0-9.52-0.811-18.843-2.377-27.915c-3.541-20.605-10.945-39.884-21.432-57.083
			C274.422,31.416,222.613,0,163.461,0L163.461,0z"/>
		<rect x="53.061" y="95.305" fill="#EA3626" width="51.83" height="51.836"/>
		<rect x="53.055" y="179.798" fill="#00CC00" width="51.836" height="51.836"/>
		<g>
			<rect x="137.549" y="95.305" fill="#FFFC53" width="51.83" height="51.831"/>
			<rect x="137.549" y="179.793" fill="#0000FF" width="51.83" height="51.836"/>
		</g>
	</g>
	<g>
		<g>
			<path fill="#333366" d="M475.377,194.854h-40.99l-9.949,23.933c-0.426,1.08-1.035,1.98-1.818,2.707
				c-0.777,0.727-1.656,1.27-2.623,1.616c-0.973,0.353-2.014,0.515-3.115,0.487c-1.107-0.028-2.199-0.257-3.271-0.688
				c-2.104-0.917-3.48-2.383-4.129-4.407c-0.643-2.019-0.508-4.083,0.402-6.18l37.928-87.246c0.699-1.56,1.684-2.774,2.947-3.635
				c1.264-0.867,2.734-1.297,4.406-1.297c1.566,0,3.004,0.419,4.324,1.252c1.32,0.839,2.305,2.036,2.953,3.602l37.518,87.324
				c0.918,2.097,1.051,4.161,0.402,6.18c-0.648,2.024-1.996,3.49-4.043,4.407c-1.023,0.487-2.076,0.744-3.148,0.772
				c-1.08,0.022-2.104-0.151-3.076-0.531c-0.975-0.375-1.863-0.929-2.668-1.656c-0.813-0.727-1.455-1.6-1.941-2.629L475.377,194.854
				z M441.092,178.764h27.496l-13.826-32.904L441.092,178.764z"/>
			<path fill="#333366" d="M528.17,158.634l-8.004,58.05c-0.318,2.265-1.348,4.033-3.07,5.297c-1.723,1.264-3.719,1.739-5.984,1.415
				c-2.266-0.325-4.037-1.348-5.336-3.071c-1.291-1.728-1.807-3.719-1.537-5.984l12.047-86.675c0.268-1.834,1.023-3.345,2.266-4.53
				c0.861-0.968,1.861-1.672,2.992-2.103c1.996-0.806,4.004-0.806,6.023,0c2.02,0.811,3.49,2.237,4.406,4.29l28.379,69.37
				l28.217-69.37c0.918-2.052,2.361-3.479,4.33-4.29c1.963-0.806,3.971-0.806,6.023,0l0.889,0.486
				c1.186,0.542,2.182,1.348,2.992,2.428c0.807,1.079,1.293,2.315,1.455,3.719l11.236,86.915c0.268,2.265-0.279,4.245-1.656,5.945
				c-1.375,1.695-3.166,2.679-5.375,2.948c-2.215,0.274-4.195-0.241-5.945-1.533c-1.75-1.297-2.762-3.076-3.031-5.335l-7.439-57.569
				l-24.418,59.75c-0.643,1.454-1.605,2.601-2.869,3.434c-1.264,0.839-2.629,1.309-4.084,1.415
				c-1.672,0.162-3.221-0.173-4.646-1.007c-1.432-0.839-2.523-2.12-3.277-3.842L528.17,158.634z"/>
			<path fill="#333366" d="M712.029,137.61c0.381,0.968,0.57,1.952,0.57,2.947c0,1.001-0.189,1.986-0.57,2.953
				c-0.375,0.974-0.939,1.863-1.695,2.668c-0.811,0.755-1.711,1.337-2.707,1.739c-1,0.403-2.008,0.61-3.031,0.61
				s-2.041-0.179-3.037-0.526c-0.996-0.352-1.873-0.906-2.623-1.661c-3.664-3.663-7.725-6.359-12.17-8.082
				c-4.447-1.729-9.066-2.59-13.865-2.59c-4.961,0-9.637,0.945-14.027,2.83c-4.396,1.885-8.232,4.463-11.521,7.724
				s-5.889,7.098-7.803,11.516c-1.912,4.424-2.869,9.167-2.869,14.234c0,4.905,0.9,9.553,2.707,13.943
				c1.807,4.396,4.313,8.261,7.518,11.605c3.211,3.345,7.008,5.996,11.404,7.964c4.391,1.969,9.172,2.976,14.352,3.032
				c4.85,0,9.457-0.833,13.826-2.506c4.361-1.672,8.455-4.368,12.287-8.087c0.75-0.699,1.617-1.242,2.59-1.616
				c0.967-0.375,1.98-0.565,3.031-0.565s2.059,0.173,3.031,0.525c0.967,0.353,1.828,0.878,2.584,1.578
				c0.811,0.755,1.404,1.627,1.785,2.623c0.373,1.001,0.559,2.024,0.559,3.076c0,1.051-0.186,2.058-0.559,3.031
				c-0.381,0.973-0.924,1.834-1.623,2.589c-5.285,5.229-11.141,9.105-17.584,11.639s-13.082,3.803-19.928,3.803
				c-4.799,0-9.408-0.621-13.832-1.862c-4.418-1.236-8.568-3.003-12.449-5.291c-3.883-2.293-7.412-5.039-10.594-8.25
				c-3.178-3.205-5.9-6.751-8.166-10.632c-2.26-3.882-4.016-8.048-5.252-12.495c-1.242-4.446-1.861-9.094-1.861-13.943
				c0-4.581,0.592-9.083,1.783-13.501c1.18-4.424,2.869-8.574,5.051-12.456c2.182-3.881,4.838-7.461,7.965-10.75
				c3.125-3.289,6.627-6.119,10.508-8.49c3.883-2.372,8.117-4.217,12.697-5.543c4.58-1.32,9.406-1.98,14.469-1.98
				c6.795,0,13.412,1.298,19.85,3.882c6.443,2.589,12.248,6.499,17.428,11.723C711.061,135.776,711.654,136.637,712.029,137.61z"/>
			<path fill="#333366" d="M722.662,171.045c2.023-4.665,4.787-8.748,8.287-12.249c3.502-3.507,7.602-6.27,12.295-8.289
				c4.686-2.025,9.67-3.031,14.955-3.031c5.336,0,10.336,1.006,14.994,3.031c4.666,2.019,8.736,4.782,12.211,8.289
				c3.479,3.501,6.23,7.584,8.248,12.249c2.02,4.659,3.033,9.659,3.033,14.995c0,5.336-1.014,10.336-3.033,15
				c-2.018,4.659-4.77,8.748-8.248,12.249c-3.475,3.507-7.545,6.264-12.211,8.289c-4.658,2.019-9.658,3.031-14.994,3.031
				c-5.285,0-10.27-1.012-14.955-3.031c-4.693-2.025-8.793-4.782-12.295-8.289c-3.5-3.501-6.264-7.589-8.287-12.249
				c-2.02-4.665-3.033-9.665-3.033-15C719.629,180.705,720.643,175.704,722.662,171.045z M737.578,194.731
				c1.191,2.724,2.797,5.095,4.811,7.114c2.023,2.025,4.395,3.63,7.119,4.816c2.719,1.18,5.621,1.778,8.691,1.778
				c3.121,0,6.051-0.598,8.77-1.778c2.725-1.186,5.096-2.791,7.115-4.816c2.023-2.019,3.613-4.39,4.775-7.114
				c1.158-2.718,1.734-5.615,1.734-8.691c0-3.126-0.576-6.035-1.734-8.73c-1.162-2.696-2.752-5.056-4.775-7.075
				c-2.02-2.019-4.391-3.613-7.115-4.771c-2.719-1.158-5.648-1.739-8.77-1.739c-3.07,0-5.973,0.582-8.691,1.739
				c-2.725,1.158-5.096,2.752-7.119,4.771c-2.014,2.019-3.619,4.379-4.811,7.075c-1.186,2.696-1.779,5.604-1.779,8.73
				C735.799,189.116,736.393,192.014,737.578,194.731z"/>
			<path fill="#333366" d="M824.33,215.717c0,2.259-0.766,4.15-2.303,5.654c-1.533,1.51-3.436,2.265-5.699,2.265
				c-2.266,0-4.174-0.755-5.738-2.265c-1.561-1.504-2.344-3.395-2.344-5.654v-87.648c0-2.265,0.783-4.15,2.344-5.66
				c1.564-1.505,3.473-2.265,5.738-2.265c2.264,0,4.166,0.76,5.699,2.265c1.537,1.51,2.303,3.395,2.303,5.66V215.717z"/>
			<path fill="#333366" d="M839.012,171.045c2.014-4.665,4.777-8.748,8.283-12.249c3.508-3.507,7.602-6.27,12.289-8.289
				c4.691-2.025,9.676-3.031,14.961-3.031c5.336,0,10.33,1.006,15,3.031c4.66,2.019,8.73,4.782,12.205,8.289
				c3.479,3.501,6.225,7.584,8.248,12.249c2.02,4.659,3.033,9.659,3.033,14.995c0,5.336-1.014,10.336-3.033,15
				c-2.023,4.659-4.77,8.748-8.248,12.249c-3.475,3.507-7.545,6.264-12.205,8.289c-4.67,2.019-9.664,3.031-15,3.031
				c-5.285,0-10.27-1.012-14.961-3.031c-4.688-2.025-8.781-4.782-12.289-8.289c-3.506-3.501-6.27-7.589-8.283-12.249
				c-2.023-4.665-3.037-9.665-3.037-15C835.975,180.705,836.988,175.704,839.012,171.045z M853.93,194.731
				c1.18,2.724,2.785,5.095,4.809,7.114c2.02,2.025,4.391,3.63,7.109,4.816c2.725,1.18,5.621,1.778,8.697,1.778
				c3.127,0,6.047-0.598,8.77-1.778c2.725-1.186,5.096-2.791,7.121-4.816c2.018-2.019,3.607-4.39,4.764-7.114
				c1.158-2.718,1.74-5.615,1.74-8.691c0-3.126-0.582-6.035-1.74-8.73c-1.156-2.696-2.746-5.056-4.764-7.075
				c-2.025-2.019-4.396-3.613-7.121-4.771c-2.723-1.158-5.643-1.739-8.77-1.739c-3.076,0-5.973,0.582-8.697,1.739
				c-2.719,1.158-5.09,2.752-7.109,4.771c-2.023,2.019-3.629,4.379-4.809,7.075c-1.191,2.696-1.779,5.604-1.779,8.73
				C852.15,189.116,852.738,192.014,853.93,194.731z"/>
			<path fill="#333366" d="M940.76,155.642c3.396-2.589,7.115-4.597,11.158-6.023c4.045-1.432,8.357-2.142,12.938-2.142h0.324
				c2.641,0,4.688,0.755,6.146,2.259c1.449,1.51,2.176,3.423,2.176,5.744c0,2.315-0.805,4.228-2.422,5.738s-3.586,2.265-5.9,2.265
				h-0.324c-3.289,0-6.398,0.632-9.34,1.902c-2.938,1.264-5.498,3.003-7.68,5.212c-2.188,2.209-3.91,4.799-5.174,7.763
				c-1.27,2.964-1.902,6.147-1.902,9.542v27.73c0,2.265-0.766,4.167-2.303,5.699c-1.539,1.538-3.441,2.304-5.699,2.304
				c-1.08,0-2.121-0.201-3.117-0.604c-0.994-0.403-1.855-0.968-2.584-1.7c-0.727-0.727-1.309-1.577-1.738-2.545
				c-0.432-0.968-0.648-2.024-0.648-3.154V155.48c0-1.135,0.217-2.187,0.648-3.154c0.43-0.973,1.012-1.818,1.738-2.545
				c0.729-0.733,1.59-1.309,2.584-1.74c0.996-0.431,2.064-0.648,3.195-0.648c1.135,0,2.18,0.218,3.154,0.648
				c0.973,0.431,1.801,1.007,2.506,1.74c0.699,0.727,1.252,1.572,1.66,2.545c0.402,0.967,0.604,2.019,0.604,3.154V155.642z"/>
			<path fill="#333366" d="M1001.803,181.191v34.526c0,2.259-0.783,4.15-2.344,5.654c-1.561,1.51-3.479,2.265-5.738,2.265
				c-2.266,0-4.166-0.755-5.699-2.265c-1.539-1.504-2.311-3.395-2.311-5.654v-87.648c0-2.265,0.771-4.15,2.311-5.66
				c1.533-1.505,3.434-2.265,5.699-2.265h27.082c4.311,0,8.371,0.8,12.17,2.388c3.803,1.588,7.113,3.758,9.943,6.51
				c2.83,2.746,5.051,5.996,6.674,9.737c1.615,3.747,2.426,7.752,2.426,12.008c0,4.318-0.811,8.317-2.426,12.008
				c-1.623,3.691-3.844,6.902-6.674,9.62c-2.83,2.724-6.141,4.866-9.943,6.432c-3.799,1.561-7.859,2.343-12.17,2.343H1001.803z
				 M1001.803,136.072V165.1h19.084c2.047,0,3.986-0.403,5.822-1.214c1.828-0.805,3.434-1.885,4.809-3.233
				c1.371-1.348,2.455-2.914,3.232-4.692c0.783-1.778,1.17-3.635,1.17-5.576c0-1.997-0.396-3.865-1.209-5.621
				c-0.805-1.75-1.9-3.272-3.277-4.569c-1.369-1.292-2.975-2.304-4.809-3.031c-1.83-0.728-3.775-1.091-5.822-1.091H1001.803z"/>
			<path fill="#333366" d="M1064.064,126.491c0.48-1.102,1.123-2.058,1.934-2.869c0.813-0.805,1.752-1.443,2.83-1.901
				c1.08-0.453,2.238-0.688,3.48-0.688c1.24,0,2.398,0.235,3.479,0.688c1.074,0.458,2.02,1.096,2.83,1.901
				c0.805,0.811,1.453,1.768,1.936,2.869c0.486,1.107,0.732,2.276,0.732,3.518s-0.246,2.399-0.732,3.479
				c-0.482,1.08-1.131,2.019-1.936,2.83c-0.811,0.805-1.756,1.438-2.83,1.896c-1.08,0.458-2.238,0.688-3.479,0.688
				c-1.242,0-2.4-0.229-3.48-0.688c-1.078-0.458-2.018-1.091-2.83-1.896c-0.811-0.811-1.453-1.75-1.934-2.83
				c-0.492-1.08-0.732-2.237-0.732-3.479S1063.572,127.599,1064.064,126.491z M1080.395,215.633c0,2.265-0.771,4.167-2.303,5.699
				c-1.539,1.538-3.439,2.304-5.705,2.304c-1.08,0-2.115-0.201-3.109-0.604c-1.002-0.403-1.863-0.968-2.59-1.7
				c-0.729-0.727-1.309-1.577-1.734-2.545c-0.436-0.968-0.654-2.024-0.654-3.154V155.48c0-1.135,0.219-2.187,0.654-3.154
				c0.426-0.973,1.018-1.818,1.773-2.545c0.754-0.733,1.621-1.309,2.59-1.74c0.967-0.431,2.018-0.648,3.154-0.648
				c1.129,0,2.182,0.218,3.148,0.648c0.973,0.431,1.807,1.007,2.506,1.74c0.705,0.727,1.258,1.572,1.66,2.545
				c0.402,0.967,0.609,2.019,0.609,3.154V215.633z"/>
			<path fill="#333366" d="M1108.365,185.878l-0.084,0.162l0.084,0.084c0,2.746,0.527,5.431,1.578,8.043
				c1.051,2.612,2.518,4.961,4.406,7.036c1.887,2.075,4.105,3.742,6.668,5.011c2.561,1.264,5.352,1.93,8.373,1.98
				c2.746,0.112,5.385-0.212,7.92-0.967c2.533-0.755,5.01-2.159,7.438-4.206c0.811-0.649,1.684-1.281,2.629-1.902
				c0.945-0.615,1.941-1.051,2.992-1.292c1.047-0.246,2.182-0.229,3.395,0.04c1.215,0.274,2.467,0.973,3.766,2.103
				c0.855,0.755,1.504,1.645,1.934,2.668c0.432,1.023,0.633,2.075,0.605,3.155c-0.023,1.079-0.281,2.17-0.762,3.272
				c-0.492,1.107-1.219,2.142-2.186,3.115c-3.289,3.395-7.227,5.973-11.809,7.718c-4.58,1.756-9.4,2.628-14.469,2.628
				c-5.391,0-10.447-0.979-15.162-2.947c-4.721-1.969-8.842-4.665-12.371-8.087s-6.314-7.467-8.367-12.126
				c-2.047-4.665-3.07-9.665-3.07-15v-0.083l0.078-0.157l-0.078-0.084c0-5.386,1.023-10.431,3.07-15.118
				c2.053-4.693,4.838-8.787,8.367-12.288c3.529-3.507,7.65-6.27,12.371-8.289c4.715-2.025,9.771-3.037,15.162-3.037
				c5.068,0,9.889,0.878,14.469,2.629c4.582,1.756,8.52,4.329,11.809,7.724c0.967,0.973,1.693,2.008,2.186,3.115
				c0.48,1.102,0.738,2.209,0.762,3.311c0.027,1.107-0.174,2.176-0.605,3.194c-0.43,1.029-1.078,1.918-1.934,2.668
				c-1.299,1.135-2.551,1.834-3.766,2.103c-1.213,0.274-2.348,0.274-3.395,0c-1.051-0.268-2.047-0.71-2.992-1.331
				c-0.945-0.621-1.818-1.252-2.629-1.901c-2.428-1.997-4.904-3.367-7.438-4.122c-2.535-0.755-5.174-1.107-7.92-1.052
				c-2.971,0.106-5.732,0.794-8.289,2.059c-2.563,1.27-4.787,2.942-6.672,5.017c-1.885,2.075-3.373,4.418-4.447,7.031
				C1108.902,180.369,1108.365,183.076,1108.365,185.878z"/>
			<path fill="#333366" d="M1209.678,179.491l20.615,31.612c0.645,0.973,1.053,1.985,1.209,3.037
				c0.162,1.052,0.139,2.086-0.078,3.11c-0.219,1.023-0.621,1.969-1.215,2.83c-0.592,0.867-1.342,1.594-2.26,2.181
				c-0.922,0.649-1.889,1.068-2.914,1.259c-1.023,0.185-2.047,0.173-3.07-0.045c-1.023-0.212-1.969-0.615-2.83-1.214
				c-0.867-0.587-1.594-1.342-2.186-2.259l-19.24-29.269l-10.029,9.542v15.442c0,1.129-0.201,2.17-0.604,3.109
				c-0.408,0.945-0.967,1.779-1.695,2.506c-0.732,0.732-1.57,1.297-2.51,1.7c-0.945,0.403-1.953,0.604-3.031,0.604
				c-2.266,0-4.189-0.755-5.779-2.265c-1.594-1.504-2.387-3.395-2.387-5.654v-87.648c0-1.13,0.217-2.17,0.648-3.11
				c0.424-0.945,1.023-1.779,1.773-2.511c0.76-0.727,1.633-1.292,2.633-1.695c0.996-0.408,2.037-0.609,3.111-0.609
				c2.264,0,4.148,0.76,5.66,2.265c1.51,1.51,2.258,3.395,2.258,5.66v51.098l29.354-28.704c0.811-0.75,1.684-1.32,2.629-1.694
				c0.945-0.38,1.912-0.537,2.908-0.487c1,0.056,1.969,0.285,2.914,0.688c0.939,0.403,1.789,1.012,2.545,1.818v0.162
				c0.76,0.811,1.318,1.7,1.699,2.668c0.381,0.973,0.57,1.952,0.57,2.953c0,0.996-0.207,1.968-0.609,2.908
				c-0.408,0.945-0.984,1.795-1.74,2.55L1209.678,179.491z"/>
			<path fill="#333366" d="M1256.244,193.316c0.65,2.266,1.635,4.368,2.953,6.309c1.314,1.941,2.898,3.613,4.727,5.011
				c1.834,1.404,3.871,2.495,6.107,3.278c2.238,0.777,4.592,1.169,7.076,1.169c3.451,0,6.33-0.526,8.652-1.578
				c2.314-1.051,4.256-2.438,5.816-4.161c1.404-1.079,2.773-1.711,4.127-1.901c1.348-0.185,2.641-0.067,3.883,0.363
				c0.861,0.269,1.615,0.716,2.26,1.337c0.648,0.621,1.186,1.303,1.615,2.058c1.029,1.566,1.471,3.333,1.338,5.297
				c-0.135,1.969-1.148,3.736-3.033,5.296c-1.24,1.186-2.639,2.304-4.205,3.356c-1.561,1.051-3.35,1.98-5.375,2.791
				c-2.025,0.806-4.273,1.443-6.75,1.902c-2.479,0.453-5.258,0.682-8.328,0.682c-5.342,0-10.354-0.995-15.041-2.992
				c-4.691-1.991-8.785-4.726-12.287-8.205c-3.506-3.479-6.281-7.556-8.328-12.249c-2.053-4.687-3.076-9.704-3.076-15.04
				c0-5.335,1.023-10.347,3.076-15.04c2.047-4.687,4.822-8.77,8.328-12.249c3.502-3.473,7.596-6.225,12.287-8.244
				c4.688-2.025,9.699-3.031,15.041-3.031c5.279,0,10.252,0.995,14.916,2.986c4.664,1.997,8.742,4.721,12.248,8.171
				c3.508,3.445,6.293,7.489,8.367,12.126c2.076,4.636,3.139,9.597,3.193,14.877c0,2.265-0.738,4.11-2.219,5.537
				c-1.488,1.432-3.385,2.142-5.705,2.142H1256.244z M1299.262,179.894c-0.594-2.472-1.551-4.754-2.871-6.829
				c-1.324-2.075-2.941-3.865-4.854-5.375s-4.084-2.696-6.506-3.563c-2.426-0.856-4.988-1.292-7.684-1.292s-5.24,0.436-7.641,1.292
				c-2.398,0.867-4.541,2.063-6.426,3.602c-1.891,1.533-3.479,3.339-4.771,5.414c-1.297,2.081-2.215,4.329-2.752,6.751H1299.262z"/>
			<path fill="#333366" d="M1343.568,155.642c3.395-2.589,7.109-4.597,11.158-6.023c4.039-1.432,8.35-2.142,12.938-2.142h0.318
				c2.645,0,4.691,0.755,6.146,2.259c1.453,1.51,2.182,3.423,2.182,5.744c0,2.315-0.807,4.228-2.428,5.738
				c-1.617,1.51-3.586,2.265-5.9,2.265h-0.318c-3.289,0-6.404,0.632-9.342,1.902c-2.941,1.264-5.502,3.003-7.678,5.212
				c-2.188,2.209-3.916,4.799-5.18,7.763s-1.896,6.147-1.896,9.542v27.73c0,2.265-0.771,4.167-2.305,5.699
				c-1.537,1.538-3.439,2.304-5.705,2.304c-1.072,0-2.113-0.201-3.109-0.604c-1-0.403-1.861-0.968-2.59-1.7
				c-0.727-0.727-1.303-1.577-1.732-2.545c-0.438-0.968-0.654-2.024-0.654-3.154V155.48c0-1.135,0.217-2.187,0.654-3.154
				c0.43-0.973,1.006-1.818,1.732-2.545c0.729-0.733,1.59-1.309,2.59-1.74c0.996-0.431,2.059-0.648,3.193-0.648
				c1.137,0,2.182,0.218,3.15,0.648c0.973,0.431,1.807,1.007,2.51,1.74c0.699,0.727,1.254,1.572,1.656,2.545
				c0.402,0.967,0.609,2.019,0.609,3.154V155.642z"/>
		</g>
	</g>
</g>
</svg>
