<?xml version="1.0" encoding="utf-8"?>
<!-- Generator: Adobe Illustrator 15.1.0, SVG Export Plug-In . SVG Version: 6.00 Build 0)  -->
<!DOCTYPE svg PUBLIC "-//W3C//DTD SVG 1.1//EN" "http://www.w3.org/Graphics/SVG/1.1/DTD/svg11.dtd">
<svg version="1.1" id="Layer_2" xmlns="http://www.w3.org/2000/svg" xmlns:xlink="http://www.w3.org/1999/xlink" x="0px" y="0px"
	 width="714.465px" height="675.002px" viewBox="0 0 714.465 675.002" enable-background="new 0 0 714.465 675.002"
	 xml:space="preserve">
<g>
	<g>
		<path fill="#333366" d="M603.5,258.743c0,49.273-13.779,95.342-37.682,134.535c-32.996,54.078-85.25,95.105-147.243,113.518
			c-23.388,6.948-48.169,10.681-73.819,10.681c-142.889,0-258.732-115.845-258.732-258.733C86.023,115.844,201.867,0,344.756,0
			c93.626,0,175.627,49.724,221.063,124.208c16.6,27.216,28.309,57.734,33.918,90.355C602.213,228.911,603.5,243.677,603.5,258.743z
			"/>
		<path fill="#FFFFFF" d="M603.5,258.743c0,49.273-13.779,95.342-37.682,134.535h-42.775v-0.665l-123.33-133.87l123.33-133.881
			v-0.654h42.775c16.6,27.216,28.309,57.734,33.918,90.355C602.213,228.911,603.5,243.677,603.5,258.743z"/>
		<linearGradient id="SVGID_1_" gradientUnits="userSpaceOnUse" x1="70.8906" y1="258.7383" x2="596.7917" y2="258.7383">
			<stop  offset="0.0364" style="stop-color:#00AEEF"/>
			<stop  offset="0.0635" style="stop-color:#0CB0E0"/>
			<stop  offset="0.1156" style="stop-color:#2BB5BA"/>
			<stop  offset="0.1864" style="stop-color:#5CBE7C"/>
			<stop  offset="0.25" style="stop-color:#8DC63F"/>
			<stop  offset="0.5" style="stop-color:#ED1C24"/>
			<stop  offset="0.75" style="stop-color:#FFF200"/>
			<stop  offset="1" style="stop-color:#92278F"/>
		</linearGradient>
		<path fill="url(#SVGID_1_)" d="M344.756,17.564c42.121,0,83.567,11.013,119.855,31.838c35.236,20.225,65.037,49.252,86.205,83.953
			c15.828,25.939,26.465,54.26,31.611,84.188c2.328,13.479,3.508,27.345,3.508,41.199c0,44.362-12.15,87.717-35.119,125.398
			c-15.41,25.243-35.088,47.247-58.506,65.381c-23.679,18.348-50.165,31.955-78.732,40.438c-22.251,6.605-45.402,9.962-68.822,9.962
			c-32.556,0-64.136-6.38-93.872-18.948c-28.706-12.149-54.518-29.543-76.661-51.697c-22.154-22.154-39.548-47.944-51.697-76.661
			c-12.578-29.725-18.938-61.305-18.938-93.872c0-32.566,6.359-64.146,18.938-93.872c12.149-28.717,29.543-54.507,51.697-76.661
			c22.144-22.165,47.955-39.548,76.661-51.697C280.62,23.935,312.2,17.564,344.756,17.564 M344.756,0
			C201.867,0,86.023,115.844,86.023,258.743c0,142.889,115.844,258.733,258.732,258.733c25.65,0,50.432-3.732,73.819-10.681
			c61.993-18.412,114.247-59.439,147.243-113.518c23.902-39.193,37.682-85.262,37.682-134.535c0-15.066-1.287-29.832-3.764-44.18
			c-5.609-32.621-17.318-63.14-33.918-90.355C520.383,49.724,438.382,0,344.756,0L344.756,0z"/>
		<rect x="169.998" y="150.855" fill="#EA3626" width="82.044" height="82.045"/>
		<rect x="169.987" y="284.587" fill="#00CC00" width="82.055" height="82.044"/>
		<g>
			<rect x="303.739" y="150.845" fill="#FFFC53" width="82.033" height="82.045"/>
			<rect x="303.739" y="284.587" fill="#0000FF" width="82.033" height="82.044"/>
		</g>
	</g>
	<g>
		<g>
			<path fill="#333366" d="M48.974,653.02H18.691l-7.346,17.672c-0.321,0.804-0.771,1.469-1.34,2.005
				c-0.58,0.536-1.233,0.934-1.952,1.19c-0.708,0.269-1.479,0.386-2.295,0.365c-0.814-0.021-1.619-0.193-2.413-0.505
				c-1.555-0.675-2.573-1.769-3.045-3.26c-0.482-1.49-0.386-3.013,0.289-4.567l28.01-64.448c0.525-1.147,1.244-2.048,2.188-2.681
				c0.933-0.644,2.016-0.954,3.249-0.954c1.158,0,2.22,0.311,3.196,0.922c0.976,0.622,1.704,1.502,2.188,2.659l27.709,64.502
				c0.676,1.555,0.771,3.077,0.3,4.567c-0.482,1.491-1.479,2.585-2.991,3.26c-0.751,0.354-1.534,0.547-2.327,0.558
				c-0.805,0.021-1.556-0.106-2.273-0.386c-0.719-0.278-1.373-0.687-1.963-1.223c-0.601-0.536-1.083-1.18-1.437-1.94L48.974,653.02z
				 M23.646,641.138h20.31l-10.219-24.31L23.646,641.138z"/>
			<path fill="#333366" d="M87.964,626.265l-5.908,42.883c-0.236,1.673-0.997,2.97-2.273,3.903
				c-1.276,0.943-2.745,1.286-4.418,1.051c-1.673-0.236-2.981-0.997-3.936-2.273c-0.954-1.266-1.341-2.745-1.137-4.418l8.9-64.019
				c0.193-1.362,0.751-2.467,1.673-3.346c0.633-0.719,1.361-1.233,2.198-1.555c1.479-0.601,2.96-0.601,4.461,0
				c1.49,0.601,2.573,1.651,3.249,3.163l20.964,51.247l20.847-51.247c0.676-1.512,1.737-2.563,3.195-3.163
				c1.448-0.601,2.928-0.601,4.45,0l0.654,0.354c0.868,0.407,1.608,0.997,2.209,1.791c0.601,0.804,0.954,1.716,1.072,2.756l8.3,64.2
				c0.204,1.673-0.203,3.132-1.223,4.387c-1.019,1.254-2.338,1.983-3.967,2.188c-1.631,0.192-3.1-0.183-4.397-1.137
				c-1.286-0.955-2.037-2.273-2.241-3.946l-5.49-42.519l-18.036,44.127c-0.482,1.083-1.18,1.93-2.123,2.541
				c-0.934,0.622-1.931,0.966-3.014,1.051c-1.233,0.118-2.381-0.128-3.432-0.75c-1.051-0.611-1.866-1.565-2.423-2.842
				L87.964,626.265z"/>
			<path fill="#333366" d="M223.786,610.737c0.278,0.718,0.407,1.437,0.407,2.177s-0.129,1.469-0.407,2.177
				c-0.29,0.719-0.697,1.372-1.266,1.973c-0.59,0.558-1.255,0.987-1.994,1.287c-0.74,0.3-1.491,0.45-2.241,0.45
				c-0.751,0-1.502-0.129-2.241-0.396c-0.729-0.258-1.384-0.665-1.941-1.223c-2.702-2.702-5.694-4.696-8.986-5.973
				c-3.281-1.276-6.702-1.909-10.24-1.909c-3.667,0-7.12,0.697-10.358,2.092c-3.25,1.394-6.081,3.292-8.515,5.704
				c-2.435,2.413-4.354,5.244-5.77,8.515c-1.404,3.26-2.112,6.767-2.112,10.509c0,3.625,0.665,7.056,1.994,10.306
				c1.341,3.238,3.186,6.102,5.555,8.567c2.37,2.467,5.18,4.429,8.418,5.877c3.249,1.458,6.788,2.209,10.605,2.241
				c3.582,0,6.992-0.611,10.209-1.845c3.228-1.233,6.262-3.228,9.082-5.973c0.559-0.525,1.19-0.923,1.909-1.201
				c0.719-0.279,1.469-0.418,2.241-0.418c0.783,0,1.522,0.128,2.241,0.386c0.719,0.268,1.351,0.654,1.909,1.169
				c0.6,0.558,1.04,1.201,1.318,1.94c0.279,0.74,0.418,1.491,0.418,2.273c0,0.772-0.139,1.522-0.418,2.241
				c-0.278,0.708-0.676,1.352-1.201,1.909c-3.893,3.86-8.225,6.724-12.985,8.6c-4.751,1.866-9.662,2.81-14.724,2.81
				c-3.539,0-6.948-0.461-10.209-1.372c-3.271-0.923-6.337-2.23-9.2-3.914c-2.863-1.694-5.479-3.732-7.817-6.091
				c-2.359-2.37-4.364-4.997-6.037-7.86s-2.971-5.941-3.882-9.223c-0.922-3.292-1.372-6.724-1.372-10.305
				c0-3.389,0.439-6.713,1.308-9.973c0.88-3.271,2.123-6.327,3.742-9.201c1.608-2.862,3.571-5.512,5.877-7.945
				c2.306-2.424,4.9-4.515,7.764-6.263c2.863-1.759,5.994-3.12,9.383-4.097c3.378-0.976,6.938-1.458,10.691-1.458
				c5.008,0,9.897,0.954,14.658,2.863c4.751,1.908,9.051,4.793,12.868,8.664C223.067,609.386,223.496,610.019,223.786,610.737z"/>
			<path fill="#333366" d="M231.636,635.433c1.49-3.442,3.527-6.466,6.123-9.05c2.584-2.585,5.608-4.633,9.071-6.123
				c3.464-1.491,7.143-2.241,11.057-2.241c3.935,0,7.624,0.75,11.076,2.241c3.442,1.49,6.445,3.538,9.019,6.123
				c2.563,2.584,4.601,5.607,6.091,9.05c1.491,3.442,2.23,7.132,2.23,11.077c0,3.946-0.739,7.636-2.23,11.078
				c-1.49,3.441-3.527,6.455-6.091,9.05c-2.573,2.585-5.576,4.622-9.019,6.123c-3.452,1.491-7.142,2.241-11.076,2.241
				c-3.914,0-7.593-0.75-11.057-2.241c-3.463-1.501-6.487-3.538-9.071-6.123c-2.596-2.595-4.633-5.608-6.123-9.05
				c-1.502-3.442-2.241-7.132-2.241-11.078C229.395,642.564,230.134,638.875,231.636,635.433z M242.648,652.934
				c0.879,2.005,2.059,3.753,3.549,5.254c1.502,1.491,3.25,2.671,5.266,3.55c2.005,0.879,4.15,1.319,6.424,1.319
				c2.305,0,4.461-0.44,6.477-1.319c2.005-0.879,3.764-2.059,5.254-3.55c1.491-1.501,2.66-3.249,3.518-5.254
				c0.857-2.016,1.287-4.15,1.287-6.424c0-2.305-0.43-4.461-1.287-6.455c-0.857-1.983-2.026-3.731-3.518-5.223
				c-1.49-1.49-3.249-2.67-5.254-3.527c-2.016-0.848-4.172-1.276-6.477-1.276c-2.273,0-4.419,0.429-6.424,1.276
				c-2.016,0.857-3.764,2.037-5.266,3.527c-1.49,1.491-2.67,3.239-3.549,5.223c-0.879,1.994-1.309,4.15-1.309,6.455
				C241.34,648.783,241.77,650.918,242.648,652.934z"/>
			<path fill="#333366" d="M306.731,668.429c0,1.673-0.568,3.066-1.694,4.182c-1.137,1.115-2.542,1.673-4.215,1.673
				s-3.088-0.558-4.246-1.673c-1.147-1.115-1.727-2.509-1.727-4.182v-64.737c0-1.673,0.579-3.066,1.727-4.182
				c1.158-1.115,2.573-1.673,4.246-1.673s3.078,0.558,4.215,1.673c1.126,1.115,1.694,2.509,1.694,4.182V668.429z"/>
			<path fill="#333366" d="M317.572,635.433c1.49-3.442,3.528-6.466,6.123-9.05c2.584-2.585,5.608-4.633,9.072-6.123
				c3.463-1.491,7.152-2.241,11.056-2.241c3.936,0,7.635,0.75,11.077,2.241c3.442,1.49,6.444,3.538,9.019,6.123
				c2.563,2.584,4.6,5.607,6.091,9.05c1.49,3.442,2.241,7.132,2.241,11.077c0,3.946-0.751,7.636-2.241,11.078
				c-1.491,3.441-3.528,6.455-6.091,9.05c-2.574,2.585-5.576,4.622-9.019,6.123c-3.442,1.491-7.142,2.241-11.077,2.241
				c-3.903,0-7.593-0.75-11.056-2.241c-3.464-1.501-6.488-3.538-9.072-6.123c-2.595-2.595-4.633-5.608-6.123-9.05
				c-1.49-3.442-2.241-7.132-2.241-11.078C315.331,642.564,316.082,638.875,317.572,635.433z M328.585,652.934
				c0.88,2.005,2.069,3.753,3.561,5.254c1.49,1.491,3.238,2.671,5.254,3.55c2.006,0.879,4.15,1.319,6.424,1.319
				c2.306,0,4.461-0.44,6.477-1.319c2.006-0.879,3.764-2.059,5.255-3.55c1.49-1.501,2.67-3.249,3.517-5.254
				c0.858-2.016,1.287-4.15,1.287-6.424c0-2.305-0.429-4.461-1.287-6.455c-0.847-1.983-2.026-3.731-3.517-5.223
				c-1.491-1.49-3.249-2.67-5.255-3.527c-2.016-0.848-4.171-1.276-6.477-1.276c-2.273,0-4.418,0.429-6.424,1.276
				c-2.016,0.857-3.764,2.037-5.254,3.527c-1.491,1.491-2.681,3.239-3.561,5.223c-0.868,1.994-1.308,4.15-1.308,6.455
				C327.277,648.783,327.717,650.918,328.585,652.934z"/>
			<path fill="#333366" d="M392.732,624.056c2.509-1.92,5.254-3.399,8.246-4.45c2.981-1.062,6.166-1.587,9.555-1.587h0.235
				c1.952,0,3.464,0.558,4.536,1.673c1.083,1.115,1.619,2.53,1.619,4.246c0,1.705-0.601,3.12-1.801,4.235
				c-1.19,1.115-2.639,1.673-4.354,1.673h-0.235c-2.435,0-4.729,0.473-6.896,1.405c-2.177,0.933-4.063,2.22-5.683,3.85
				c-1.609,1.63-2.885,3.55-3.818,5.737c-0.933,2.188-1.404,4.535-1.404,7.045v20.481c0,1.673-0.568,3.078-1.705,4.214
				c-1.126,1.137-2.531,1.705-4.203,1.705c-0.805,0-1.566-0.149-2.306-0.45c-0.729-0.3-1.373-0.718-1.909-1.255
				c-0.536-0.536-0.965-1.168-1.287-1.887c-0.311-0.708-0.472-1.49-0.472-2.327v-44.427c0-0.836,0.161-1.619,0.472-2.338
				c0.322-0.707,0.751-1.34,1.287-1.876s1.18-0.966,1.909-1.287c0.739-0.312,1.522-0.472,2.358-0.472
				c0.837,0,1.619,0.16,2.338,0.472c0.708,0.321,1.33,0.751,1.845,1.287s0.922,1.169,1.223,1.876c0.3,0.719,0.45,1.502,0.45,2.338
				V624.056z"/>
			<path fill="#333366" d="M437.824,642.929v25.5c0,1.673-0.579,3.066-1.727,4.182c-1.158,1.115-2.574,1.673-4.246,1.673
				c-1.674,0-3.078-0.558-4.204-1.673c-1.137-1.115-1.705-2.509-1.705-4.182v-64.737c0-1.673,0.568-3.066,1.705-4.182
				c1.126-1.115,2.53-1.673,4.204-1.673h20.01c3.185,0,6.187,0.59,8.985,1.759c2.81,1.18,5.255,2.777,7.346,4.804
				c2.091,2.038,3.731,4.429,4.933,7.206c1.191,2.767,1.791,5.716,1.791,8.868c0,3.185-0.6,6.134-1.791,8.868
				c-1.201,2.724-2.842,5.094-4.933,7.1c-2.091,2.016-4.536,3.592-7.346,4.75c-2.799,1.158-5.801,1.737-8.985,1.737H437.824z
				 M437.824,609.601v21.436h14.09c1.523,0,2.949-0.289,4.311-0.89c1.352-0.601,2.531-1.395,3.55-2.392
				c1.009-0.997,1.813-2.145,2.392-3.464c0.568-1.318,0.857-2.691,0.857-4.117c0-1.48-0.289-2.863-0.89-4.15
				c-0.601-1.297-1.405-2.423-2.424-3.378c-1.008-0.954-2.198-1.705-3.549-2.241c-1.352-0.536-2.788-0.804-4.3-0.804H437.824z"/>
			<path fill="#333366" d="M483.807,602.523c0.363-0.815,0.836-1.523,1.436-2.124c0.602-0.601,1.299-1.062,2.092-1.404
				c0.793-0.333,1.652-0.504,2.574-0.504c0.91,0,1.77,0.171,2.563,0.504c0.793,0.343,1.49,0.804,2.092,1.404
				c0.588,0.601,1.072,1.309,1.436,2.124c0.354,0.814,0.537,1.684,0.537,2.595c0,0.922-0.184,1.78-0.537,2.573
				c-0.363,0.794-0.848,1.491-1.436,2.092c-0.602,0.589-1.299,1.062-2.092,1.404c-0.793,0.332-1.652,0.504-2.563,0.504
				c-0.922,0-1.781-0.172-2.574-0.504c-0.793-0.343-1.49-0.815-2.092-1.404c-0.6-0.601-1.072-1.298-1.436-2.092
				c-0.354-0.793-0.537-1.651-0.537-2.573C483.27,604.207,483.453,603.338,483.807,602.523z M495.869,668.364
				c0,1.673-0.557,3.078-1.693,4.214c-1.137,1.137-2.541,1.705-4.215,1.705c-0.793,0-1.555-0.149-2.295-0.45
				c-0.74-0.3-1.383-0.718-1.908-1.255c-0.547-0.536-0.977-1.168-1.287-1.887c-0.322-0.708-0.482-1.49-0.482-2.327v-44.427
				c0-0.836,0.16-1.619,0.482-2.338c0.311-0.707,0.75-1.34,1.309-1.876c0.557-0.536,1.201-0.966,1.908-1.287
				c0.719-0.312,1.502-0.472,2.338-0.472s1.609,0.16,2.326,0.472c0.719,0.321,1.33,0.751,1.846,1.287
				c0.525,0.536,0.932,1.169,1.232,1.876c0.301,0.719,0.439,1.502,0.439,2.338V668.364z"/>
			<path fill="#333366" d="M516.533,646.393l-0.053,0.117l0.053,0.054c0,2.038,0.396,4.021,1.17,5.952
				c0.781,1.93,1.855,3.656,3.26,5.189c1.383,1.533,3.023,2.767,4.922,3.7c1.887,0.943,3.945,1.426,6.188,1.469
				c2.025,0.075,3.979-0.161,5.844-0.719c1.877-0.558,3.711-1.587,5.502-3.109c0.59-0.472,1.242-0.943,1.939-1.395
				c0.697-0.461,1.428-0.782,2.209-0.965c0.773-0.172,1.609-0.161,2.51,0.032c0.891,0.204,1.813,0.719,2.777,1.555
				c0.633,0.558,1.105,1.212,1.426,1.974c0.322,0.761,0.473,1.533,0.451,2.327c-0.021,0.793-0.203,1.608-0.568,2.423
				c-0.354,0.815-0.891,1.576-1.609,2.295c-2.434,2.509-5.34,4.407-8.729,5.705c-3.377,1.297-6.938,1.94-10.68,1.94
				c-3.99,0-7.721-0.729-11.207-2.177c-3.484-1.458-6.529-3.442-9.135-5.973c-2.607-2.531-4.666-5.522-6.178-8.965
				c-1.521-3.442-2.273-7.131-2.273-11.077v-0.054l0.064-0.129l-0.064-0.054c0-3.978,0.752-7.71,2.273-11.174
				c1.512-3.463,3.57-6.487,6.178-9.071c2.605-2.585,5.65-4.633,9.135-6.123c3.486-1.491,7.217-2.241,11.207-2.241
				c3.742,0,7.303,0.644,10.68,1.94c3.389,1.298,6.295,3.196,8.729,5.705c0.719,0.719,1.256,1.479,1.609,2.295
				c0.365,0.825,0.547,1.641,0.568,2.456c0.021,0.814-0.129,1.598-0.451,2.358c-0.32,0.751-0.793,1.416-1.426,1.963
				c-0.965,0.836-1.887,1.361-2.777,1.555c-0.9,0.204-1.736,0.204-2.51,0c-0.781-0.193-1.512-0.525-2.209-0.976
				c-0.697-0.461-1.35-0.934-1.939-1.405c-1.791-1.479-3.625-2.487-5.502-3.045c-1.865-0.558-3.818-0.815-5.844-0.783
				c-2.199,0.086-4.236,0.59-6.123,1.522c-1.898,0.934-3.539,2.178-4.934,3.711c-1.395,1.522-2.488,3.26-3.281,5.189
				C516.93,642.317,516.533,644.322,516.533,646.393z"/>
			<path fill="#333366" d="M591.371,641.674l15.229,23.345c0.482,0.719,0.783,1.469,0.9,2.241c0.117,0.783,0.096,1.544-0.064,2.306
				c-0.16,0.751-0.461,1.447-0.891,2.091c-0.439,0.633-0.996,1.169-1.672,1.608c-0.688,0.482-1.395,0.783-2.156,0.923
				c-0.75,0.139-1.512,0.128-2.262-0.021c-0.762-0.161-1.459-0.461-2.102-0.901c-0.633-0.439-1.17-0.997-1.609-1.673l-14.209-21.618
				l-7.408,7.046v11.409c0,0.836-0.15,1.598-0.451,2.295s-0.719,1.318-1.254,1.854c-0.537,0.537-1.158,0.955-1.846,1.255
				c-0.697,0.301-1.447,0.45-2.24,0.45c-1.674,0-3.1-0.558-4.268-1.673c-1.18-1.115-1.77-2.509-1.77-4.182v-64.737
				c0-0.836,0.16-1.608,0.482-2.305c0.311-0.697,0.75-1.309,1.309-1.845c0.557-0.547,1.211-0.965,1.939-1.255
				c0.74-0.3,1.512-0.45,2.307-0.45c1.672,0,3.066,0.558,4.17,1.673c1.127,1.115,1.684,2.509,1.684,4.182v37.736l21.672-21.2
				c0.602-0.558,1.244-0.977,1.941-1.255c0.697-0.279,1.416-0.396,2.156-0.354c0.729,0.043,1.447,0.203,2.145,0.504
				c0.697,0.3,1.33,0.75,1.887,1.351v0.118c0.559,0.59,0.977,1.255,1.256,1.963c0.277,0.718,0.418,1.447,0.418,2.188
				c0,0.739-0.15,1.447-0.451,2.145c-0.301,0.696-0.729,1.329-1.287,1.887L591.371,641.674z"/>
			<path fill="#333366" d="M625.771,651.883c0.484,1.673,1.201,3.228,2.178,4.664c0.977,1.427,2.145,2.66,3.496,3.7
				c1.352,1.029,2.863,1.844,4.504,2.412c1.662,0.579,3.398,0.869,5.232,0.869c2.541,0,4.676-0.386,6.391-1.158
				c1.705-0.783,3.143-1.802,4.301-3.078c1.029-0.793,2.049-1.265,3.045-1.404c0.998-0.14,1.951-0.054,2.863,0.268
				c0.645,0.204,1.201,0.526,1.674,0.987c0.482,0.45,0.879,0.965,1.201,1.522c0.75,1.158,1.082,2.456,0.975,3.914
				c-0.096,1.447-0.836,2.756-2.23,3.903c-0.922,0.879-1.951,1.705-3.109,2.487c-1.146,0.772-2.477,1.459-3.967,2.06
				c-1.492,0.601-3.164,1.062-4.986,1.404c-1.834,0.333-3.883,0.504-6.156,0.504c-3.945,0-7.646-0.739-11.109-2.209
				c-3.463-1.469-6.488-3.496-9.072-6.059c-2.594-2.573-4.643-5.587-6.154-9.051c-1.512-3.463-2.273-7.163-2.273-11.109
				c0-3.945,0.762-7.646,2.273-11.109c1.512-3.463,3.561-6.477,6.154-9.05c2.584-2.563,5.609-4.601,9.072-6.091
				c3.463-1.491,7.164-2.241,11.109-2.241c3.904,0,7.57,0.739,11.023,2.209c3.443,1.479,6.455,3.484,9.041,6.037
				c2.594,2.541,4.652,5.533,6.186,8.954c1.535,3.432,2.316,7.088,2.359,10.991c0,1.673-0.547,3.034-1.641,4.097
				c-1.104,1.051-2.498,1.576-4.213,1.576H625.771z M657.545,641.975c-0.439-1.834-1.146-3.518-2.111-5.051
				c-0.986-1.534-2.178-2.853-3.592-3.968c-1.416-1.115-3.014-1.995-4.805-2.628c-1.791-0.643-3.689-0.965-5.674-0.965
				c-1.994,0-3.871,0.322-5.65,0.965c-1.77,0.633-3.346,1.513-4.74,2.649c-1.393,1.137-2.572,2.477-3.527,4.011
				c-0.955,1.533-1.631,3.185-2.027,4.986H657.545z"/>
			<path fill="#333366" d="M690.273,624.056c2.51-1.92,5.254-3.399,8.246-4.45c2.98-1.062,6.166-1.587,9.555-1.587h0.236
				c1.951,0,3.463,0.558,4.535,1.673c1.084,1.115,1.619,2.53,1.619,4.246c0,1.705-0.6,3.12-1.801,4.235
				c-1.191,1.115-2.648,1.673-4.354,1.673h-0.236c-2.434,0-4.729,0.473-6.895,1.405c-2.178,0.933-4.064,2.22-5.684,3.85
				c-1.609,1.63-2.885,3.55-3.818,5.737c-0.932,2.188-1.404,4.535-1.404,7.045v20.481c0,1.673-0.568,3.078-1.705,4.214
				c-1.127,1.137-2.531,1.705-4.203,1.705c-0.805,0-1.566-0.149-2.307-0.45c-0.74-0.3-1.371-0.718-1.908-1.255
				c-0.535-0.536-0.965-1.168-1.287-1.887c-0.311-0.708-0.471-1.49-0.471-2.327v-44.427c0-0.836,0.16-1.619,0.471-2.338
				c0.322-0.707,0.752-1.34,1.287-1.876c0.537-0.536,1.168-0.966,1.908-1.287c0.74-0.312,1.523-0.472,2.359-0.472
				s1.619,0.16,2.338,0.472c0.707,0.321,1.33,0.751,1.844,1.287c0.516,0.536,0.924,1.169,1.223,1.876
				c0.301,0.719,0.451,1.502,0.451,2.338V624.056z"/>
		</g>
	</g>
</g>
</svg>
